<mxfile host="app.diagrams.net" modified="2023-06-30T14:28:09.591Z" agent="Mozilla/5.0 (Windows NT 10.0; Win64; x64) AppleWebKit/537.36 (KHTML, like Gecko) Chrome/114.0.0.0 Safari/537.36" etag="dO13ff3pSCNixZ6U_Y-U" version="21.5.2" type="device">
  <diagram name="Page-1" id="AZlshZNvEC0qTf6dU8yt">
    <mxGraphModel dx="1050" dy="541" grid="1" gridSize="10" guides="1" tooltips="1" connect="1" arrows="1" fold="1" page="1" pageScale="1" pageWidth="850" pageHeight="1100" math="0" shadow="0">
      <root>
        <mxCell id="0" />
        <mxCell id="1" parent="0" />
        <mxCell id="rY4SgsR8VbWyUH08kf8--3" value="Device&lt;br&gt;&lt;br&gt;&lt;br&gt;&lt;br&gt;&lt;br&gt;&lt;br&gt;&lt;br&gt;&lt;br&gt;&lt;br&gt;&lt;br&gt;&lt;br&gt;&lt;br&gt;&lt;br&gt;&lt;br&gt;&lt;br&gt;&lt;br&gt;" style="rounded=0;whiteSpace=wrap;html=1;shadow=0;fillColor=none;align=left;backgroundOutline=0;container=0;" vertex="1" parent="1">
          <mxGeometry x="30" y="20" width="330" height="270" as="geometry" />
        </mxCell>
        <mxCell id="rY4SgsR8VbWyUH08kf8--2" value="Food&lt;br&gt;&lt;br&gt;&lt;br&gt;&lt;br&gt;&lt;br&gt;" style="rounded=0;whiteSpace=wrap;html=1;align=left;fillColor=none;" vertex="1" parent="1">
          <mxGeometry x="40" y="60" width="310" height="100" as="geometry" />
        </mxCell>
        <mxCell id="rY4SgsR8VbWyUH08kf8--7" style="edgeStyle=orthogonalEdgeStyle;rounded=0;orthogonalLoop=1;jettySize=auto;html=1;exitX=1;exitY=0.25;exitDx=0;exitDy=0;entryX=0;entryY=0.25;entryDx=0;entryDy=0;" edge="1" parent="1" source="rY4SgsR8VbWyUH08kf8--4" target="rY4SgsR8VbWyUH08kf8--5">
          <mxGeometry relative="1" as="geometry" />
        </mxCell>
        <mxCell id="rY4SgsR8VbWyUH08kf8--4" value="Food dispenser" style="rounded=0;whiteSpace=wrap;html=1;" vertex="1" parent="1">
          <mxGeometry x="50" y="90" width="120" height="60" as="geometry" />
        </mxCell>
        <mxCell id="rY4SgsR8VbWyUH08kf8--8" style="edgeStyle=orthogonalEdgeStyle;rounded=0;orthogonalLoop=1;jettySize=auto;html=1;exitX=0;exitY=0.75;exitDx=0;exitDy=0;entryX=1;entryY=0.75;entryDx=0;entryDy=0;" edge="1" parent="1" source="rY4SgsR8VbWyUH08kf8--5" target="rY4SgsR8VbWyUH08kf8--4">
          <mxGeometry relative="1" as="geometry" />
        </mxCell>
        <mxCell id="rY4SgsR8VbWyUH08kf8--5" value="Food data computation" style="rounded=0;whiteSpace=wrap;html=1;" vertex="1" parent="1">
          <mxGeometry x="220" y="90" width="120" height="60" as="geometry" />
        </mxCell>
        <mxCell id="rY4SgsR8VbWyUH08kf8--13" value="Water&lt;br&gt;&lt;br&gt;&lt;br&gt;&lt;br&gt;&lt;br&gt;" style="rounded=0;whiteSpace=wrap;html=1;align=left;fillColor=none;" vertex="1" parent="1">
          <mxGeometry x="40" y="170" width="310" height="100" as="geometry" />
        </mxCell>
        <mxCell id="rY4SgsR8VbWyUH08kf8--14" style="edgeStyle=orthogonalEdgeStyle;rounded=0;orthogonalLoop=1;jettySize=auto;html=1;exitX=1;exitY=0.25;exitDx=0;exitDy=0;entryX=0;entryY=0.25;entryDx=0;entryDy=0;" edge="1" parent="1" source="rY4SgsR8VbWyUH08kf8--15" target="rY4SgsR8VbWyUH08kf8--17">
          <mxGeometry relative="1" as="geometry" />
        </mxCell>
        <mxCell id="rY4SgsR8VbWyUH08kf8--15" value="Water dispenser" style="rounded=0;whiteSpace=wrap;html=1;" vertex="1" parent="1">
          <mxGeometry x="50" y="200" width="120" height="60" as="geometry" />
        </mxCell>
        <mxCell id="rY4SgsR8VbWyUH08kf8--16" style="edgeStyle=orthogonalEdgeStyle;rounded=0;orthogonalLoop=1;jettySize=auto;html=1;exitX=0;exitY=0.75;exitDx=0;exitDy=0;entryX=1;entryY=0.75;entryDx=0;entryDy=0;" edge="1" parent="1" source="rY4SgsR8VbWyUH08kf8--17" target="rY4SgsR8VbWyUH08kf8--15">
          <mxGeometry relative="1" as="geometry" />
        </mxCell>
        <mxCell id="rY4SgsR8VbWyUH08kf8--17" value="Water data computation" style="rounded=0;whiteSpace=wrap;html=1;" vertex="1" parent="1">
          <mxGeometry x="220" y="200" width="120" height="60" as="geometry" />
        </mxCell>
        <mxCell id="rY4SgsR8VbWyUH08kf8--18" value="" style="sketch=0;points=[[0,0,0],[0.25,0,0],[0.5,0,0],[0.75,0,0],[1,0,0],[0,1,0],[0.25,1,0],[0.5,1,0],[0.75,1,0],[1,1,0],[0,0.25,0],[0,0.5,0],[0,0.75,0],[1,0.25,0],[1,0.5,0],[1,0.75,0]];outlineConnect=0;fontColor=#232F3E;gradientColor=#4D72F3;gradientDirection=north;fillColor=#3334B9;strokeColor=#ffffff;dashed=0;verticalLabelPosition=bottom;verticalAlign=top;align=center;html=1;fontSize=12;fontStyle=0;aspect=fixed;shape=mxgraph.aws4.resourceIcon;resIcon=mxgraph.aws4.dynamodb;" vertex="1" parent="1">
          <mxGeometry x="441" y="120" width="78" height="78" as="geometry" />
        </mxCell>
        <mxCell id="rY4SgsR8VbWyUH08kf8--19" value="DynamoDB" style="text;html=1;align=center;verticalAlign=middle;resizable=0;points=[];autosize=1;strokeColor=none;fillColor=none;fontSize=14;" vertex="1" parent="1">
          <mxGeometry x="430" y="199" width="100" height="30" as="geometry" />
        </mxCell>
        <mxCell id="rY4SgsR8VbWyUH08kf8--20" value="Cloud&lt;br&gt;&lt;br&gt;&lt;br&gt;&lt;br&gt;&lt;br&gt;" style="rounded=0;whiteSpace=wrap;html=1;shadow=0;fillColor=none;align=left;backgroundOutline=0;container=0;" vertex="1" parent="1">
          <mxGeometry x="580" y="100" width="150" height="100" as="geometry" />
        </mxCell>
        <mxCell id="rY4SgsR8VbWyUH08kf8--21" value="" style="endArrow=classic;html=1;rounded=0;exitX=1;exitY=0.5;exitDx=0;exitDy=0;entryX=0;entryY=0.5;entryDx=0;entryDy=0;entryPerimeter=0;edgeStyle=orthogonalEdgeStyle;" edge="1" parent="1" source="rY4SgsR8VbWyUH08kf8--13" target="rY4SgsR8VbWyUH08kf8--18">
          <mxGeometry width="50" height="50" relative="1" as="geometry">
            <mxPoint x="400" y="280" as="sourcePoint" />
            <mxPoint x="450" y="230" as="targetPoint" />
          </mxGeometry>
        </mxCell>
        <mxCell id="rY4SgsR8VbWyUH08kf8--22" value="" style="endArrow=classic;html=1;rounded=0;exitX=1;exitY=0.5;exitDx=0;exitDy=0;entryX=0;entryY=0.5;entryDx=0;entryDy=0;entryPerimeter=0;edgeStyle=orthogonalEdgeStyle;" edge="1" parent="1" source="rY4SgsR8VbWyUH08kf8--2" target="rY4SgsR8VbWyUH08kf8--18">
          <mxGeometry width="50" height="50" relative="1" as="geometry">
            <mxPoint x="360" y="230" as="sourcePoint" />
            <mxPoint x="451" y="169" as="targetPoint" />
          </mxGeometry>
        </mxCell>
        <mxCell id="rY4SgsR8VbWyUH08kf8--23" value="" style="endArrow=classic;html=1;rounded=0;exitX=0;exitY=0.5;exitDx=0;exitDy=0;entryX=1;entryY=0.5;entryDx=0;entryDy=0;entryPerimeter=0;edgeStyle=orthogonalEdgeStyle;" edge="1" parent="1" source="rY4SgsR8VbWyUH08kf8--24" target="rY4SgsR8VbWyUH08kf8--18">
          <mxGeometry width="50" height="50" relative="1" as="geometry">
            <mxPoint x="400" y="280" as="sourcePoint" />
            <mxPoint x="450" y="230" as="targetPoint" />
          </mxGeometry>
        </mxCell>
        <mxCell id="rY4SgsR8VbWyUH08kf8--24" value="Lambda&lt;br&gt;" style="rounded=0;whiteSpace=wrap;html=1;shadow=0;fillColor=none;align=left;backgroundOutline=0;container=0;" vertex="1" parent="1">
          <mxGeometry x="590" y="139" width="130" height="40" as="geometry" />
        </mxCell>
        <mxCell id="rY4SgsR8VbWyUH08kf8--25" style="edgeStyle=orthogonalEdgeStyle;rounded=0;orthogonalLoop=1;jettySize=auto;html=1;exitX=0.5;exitY=1;exitDx=0;exitDy=0;" edge="1" parent="1" source="rY4SgsR8VbWyUH08kf8--20" target="rY4SgsR8VbWyUH08kf8--20">
          <mxGeometry relative="1" as="geometry" />
        </mxCell>
      </root>
    </mxGraphModel>
  </diagram>
</mxfile>
